solid Spiral Chess Set 3
facet normal 0.0 0.0 -1.0
  outer loop
    vertex -99.88414417220105 -2.9806137688582566 0.0
    vertex -98.93414417220103 -3.2351655016678222 0.0
    vertex -100.83414417220102 -3.2351655016678222 0.0
  endloop
endfacet
facet normal 0.0 0.0 -1.0
  outer loop
    vertex -98.93414417220103 -3.2351655016678222 0.0
    vertex -99.88414417220105 -2.9806137688582566 0.0
    vertex -99.1886959050106 -2.285165501667824 0.0
  endloop
endfacet
facet normal 0.0 0.0 -1.0
  outer loop
    vertex -98.93414417220103 -3.2351655016678222 0.0
    vertex -99.1886959050106 -2.285165501667824 0.0
    vertex -98.93414417220103 -1.3351655016678265 0.0
  endloop
endfacet
facet normal 0.0 0.0 -1.0
  outer loop
    vertex -102.47959243939144 5.314834498332171 0.0
    vertex -102.73414417220101 -1.3351655016678248 0.0
    vertex -102.73414417220101 6.264834498332171 0.0
  endloop
endfacet
facet normal 0.0 0.0 -1.0
  outer loop
    vertex -102.73414417220101 -1.3351655016678248 0.0
    vertex -102.47959243939144 5.314834498332171 0.0
    vertex -102.47959243939144 -0.3851655016678268 0.0
  endloop
endfacet
facet normal 0.0 0.0 -1.0
  outer loop
    vertex -102.47959243939144 -0.3851655016678268 0.0
    vertex -102.47959243939144 5.314834498332171 0.0
    vertex -101.78414417220102 4.61938623114174 0.0
  endloop
endfacet
facet normal 0.0 0.0 -1.0
  outer loop
    vertex -102.47959243939144 -0.3851655016678268 0.0
    vertex -101.78414417220102 4.61938623114174 0.0
    vertex -101.78414417220102 0.3102827655226048 0.0
  endloop
endfacet
facet normal 0.0 0.0 -1.0
  outer loop
    vertex -101.78414417220102 0.3102827655226048 0.0
    vertex -101.78414417220102 4.61938623114174 0.0
    vertex -100.83414417220102 4.364834498332173 0.0
  endloop
endfacet
facet normal 0.0 0.0 -1.0
  outer loop
    vertex -101.78414417220102 0.3102827655226048 0.0
    vertex -100.83414417220102 4.364834498332173 0.0
    vertex -100.83414417220102 0.5648344983321715 0.0
  endloop
endfacet
facet normal 0.0 0.0 -1.0
  outer loop
    vertex -100.83414417220102 0.5648344983321715 0.0
    vertex -100.83414417220102 4.364834498332173 0.0
    vertex -98.93414417220103 4.364834498332173 0.0
  endloop
endfacet
facet normal 0.0 0.0 -1.0
  outer loop
    vertex -100.83414417220102 0.5648344983321715 0.0
    vertex -98.93414417220103 4.364834498332173 0.0
    vertex -98.93414417220103 0.5648344983321757 0.0
  endloop
endfacet
facet normal 0.0 0.0 -1.0
  outer loop
    vertex -93.23414417220104 8.164834498332171 0.0
    vertex -99.88414417220105 7.910282765522605 0.0
    vertex -100.83414417220102 8.164834498332171 0.0
  endloop
endfacet
facet normal 0.0 0.0 -1.0
  outer loop
    vertex -99.88414417220105 7.910282765522605 0.0
    vertex -93.23414417220104 8.164834498332171 0.0
    vertex -99.1886959050106 7.214834498332172 0.0
  endloop
endfacet
facet normal 0.0 0.0 -1.0
  outer loop
    vertex -99.1886959050106 7.214834498332172 0.0
    vertex -93.23414417220104 8.164834498332171 0.0
    vertex -94.18414417220106 7.910282765522605 0.0
  endloop
endfacet
facet normal 0.0 0.0 -1.0
  outer loop
    vertex -99.1886959050106 7.214834498332172 0.0
    vertex -94.18414417220106 7.910282765522605 0.0
    vertex -98.93414417220103 6.264834498332172 0.0
  endloop
endfacet
facet normal 0.0 0.0 -1.0
  outer loop
    vertex -98.93414417220103 6.264834498332172 0.0
    vertex -94.18414417220106 7.910282765522605 0.0
    vertex -98.93414417220103 4.364834498332173 0.0
  endloop
endfacet
facet normal 0.0 0.0 -1.0
  outer loop
    vertex -98.93414417220103 4.364834498332173 0.0
    vertex -94.18414417220106 7.910282765522605 0.0
    vertex -94.87959243939147 7.214834498332172 0.0
  endloop
endfacet
facet normal 0.0 0.0 -1.0
  outer loop
    vertex -98.93414417220103 4.364834498332173 0.0
    vertex -94.87959243939147 7.214834498332172 0.0
    vertex -98.93414417220103 0.5648344983321757 0.0
  endloop
endfacet
facet normal 0.0 0.0 -1.0
  outer loop
    vertex -98.93414417220103 0.5648344983321757 0.0
    vertex -94.87959243939147 7.214834498332172 0.0
    vertex -98.93414417220103 -1.3351655016678265 0.0
  endloop
endfacet
facet normal 0.0 0.0 -1.0
  outer loop
    vertex -98.93414417220103 -1.3351655016678265 0.0
    vertex -94.87959243939147 7.214834498332172 0.0
    vertex -98.93414417220103 -3.2351655016678222 0.0
  endloop
endfacet
facet normal 0.0 0.0 -1.0
  outer loop
    vertex -98.93414417220103 -3.2351655016678222 0.0
    vertex -94.87959243939147 7.214834498332172 0.0
    vertex -98.93414417220103 -6.0851655016678246 0.0
  endloop
endfacet
facet normal 0.0 0.0 -1.0
  outer loop
    vertex -98.93414417220103 -6.0851655016678246 0.0
    vertex -94.87959243939147 7.214834498332172 0.0
    vertex -95.13414417220105 6.264834498332175 0.0
  endloop
endfacet
facet normal 0.0 0.0 -1.0
  outer loop
    vertex -93.23414417220104 4.364834498332164 0.0
    vertex -95.13414417220105 0.5648344983321728 0.0
    vertex -95.13414417220105 4.364834498332171 0.0
  endloop
endfacet
facet normal 0.0 0.0 -1.0
  outer loop
    vertex -95.13414417220105 0.5648344983321728 0.0
    vertex -93.23414417220104 4.364834498332164 0.0
    vertex -93.23414417220104 0.5648344983321799 0.0
  endloop
endfacet
facet normal 0.0 0.0 -1.0
  outer loop
    vertex -93.23414417220104 0.5648344983321799 0.0
    vertex -93.23414417220104 4.364834498332164 0.0
    vertex -92.284144172201 4.619386231141729 0.0
  endloop
endfacet
facet normal 0.0 0.0 -1.0
  outer loop
    vertex -93.23414417220104 0.5648344983321799 0.0
    vertex -92.284144172201 4.619386231141729 0.0
    vertex -92.284144172201 0.31028276552261186 0.0
  endloop
endfacet
facet normal 0.0 0.0 -1.0
  outer loop
    vertex -92.284144172201 0.31028276552261186 0.0
    vertex -92.284144172201 4.619386231141729 0.0
    vertex -91.5886959050106 5.314834498332169 0.0
  endloop
endfacet
facet normal 0.0 0.0 -1.0
  outer loop
    vertex -92.284144172201 0.31028276552261186 0.0
    vertex -91.5886959050106 5.314834498332169 0.0
    vertex -91.5886959050106 -0.3851655016678233 0.0
  endloop
endfacet
facet normal 0.0 0.0 -1.0
  outer loop
    vertex -91.5886959050106 -0.3851655016678233 0.0
    vertex -91.5886959050106 5.314834498332169 0.0
    vertex -91.33414417220104 6.264834498332171 0.0
  endloop
endfacet
facet normal 0.0 0.0 -1.0
  outer loop
    vertex -91.5886959050106 -0.3851655016678233 0.0
    vertex -91.33414417220104 6.264834498332171 0.0
    vertex -91.33414417220104 -1.3351655016678265 0.0
  endloop
endfacet
facet normal 0.0 0.0 -1.0
  outer loop
    vertex -94.87959243939147 -2.285165501667824 0.0
    vertex -95.13414417220105 -3.2351655016678222 0.0
    vertex -95.13414417220105 -1.3351655016678265 0.0
  endloop
endfacet
facet normal 0.0 0.0 -1.0
  outer loop
    vertex -95.13414417220105 -3.2351655016678222 0.0
    vertex -94.87959243939147 -2.285165501667824 0.0
    vertex -94.18414417220106 -2.9806137688582566 0.0
  endloop
endfacet
facet normal 0.0 0.0 -1.0
  outer loop
    vertex -95.13414417220105 -3.2351655016678222 0.0
    vertex -94.18414417220106 -2.9806137688582566 0.0
    vertex -93.23414417220104 -3.2351655016678222 0.0
  endloop
endfacet
facet normal 0.0 0.0 -1.0
  outer loop
    vertex -95.13414417220105 6.264834498332175 0.0
    vertex -95.13414417220105 -6.0851655016678246 0.0
    vertex -98.93414417220103 -6.0851655016678246 0.0
  endloop
endfacet
facet normal 0.0 0.0 -1.0
  outer loop
    vertex -95.13414417220105 -6.0851655016678246 0.0
    vertex -95.13414417220105 6.264834498332175 0.0
    vertex -95.13414417220105 4.364834498332171 0.0
  endloop
endfacet
facet normal 0.0 0.0 -1.0
  outer loop
    vertex -95.13414417220105 -6.0851655016678246 0.0
    vertex -95.13414417220105 4.364834498332171 0.0
    vertex -95.13414417220105 0.5648344983321728 0.0
  endloop
endfacet
facet normal 0.0 0.0 -1.0
  outer loop
    vertex -95.13414417220105 -6.0851655016678246 0.0
    vertex -95.13414417220105 0.5648344983321728 0.0
    vertex -95.13414417220105 -1.3351655016678265 0.0
  endloop
endfacet
facet normal 0.0 0.0 -1.0
  outer loop
    vertex -95.13414417220105 -6.0851655016678246 0.0
    vertex -95.13414417220105 -1.3351655016678265 0.0
    vertex -95.13414417220105 -3.2351655016678222 0.0
  endloop
endfacet
facet normal 0.0 0.0 1.0
  outer loop
    vertex -95.13414417220105 -6.0851655016678246 3.7999999999999985
    vertex -98.93414417220103 -3.2351655016678222 3.7999999999999985
    vertex -98.93414417220103 -6.0851655016678246 3.7999999999999985
  endloop
endfacet
facet normal 0.0 0.0 1.0
  outer loop
    vertex -98.93414417220103 -3.2351655016678222 3.7999999999999985
    vertex -95.13414417220105 -6.0851655016678246 3.7999999999999985
    vertex -98.93414417220103 -1.3351655016678265 3.7999999999999985
  endloop
endfacet
facet normal 0.0 0.0 1.0
  outer loop
    vertex -98.93414417220103 -1.3351655016678265 3.7999999999999985
    vertex -95.13414417220105 -6.0851655016678246 3.7999999999999985
    vertex -98.93414417220103 0.5648344983321757 3.7999999999999985
  endloop
endfacet
facet normal 0.0 0.0 1.0
  outer loop
    vertex -98.93414417220103 0.5648344983321757 3.7999999999999985
    vertex -95.13414417220105 -6.0851655016678246 3.7999999999999985
    vertex -98.93414417220103 4.364834498332173 3.7999999999999985
  endloop
endfacet
facet normal 0.0 0.0 1.0
  outer loop
    vertex -98.93414417220103 4.364834498332173 3.7999999999999985
    vertex -95.13414417220105 -6.0851655016678246 3.7999999999999985
    vertex -98.93414417220103 6.264834498332172 3.7999999999999985
  endloop
endfacet
facet normal 0.0 0.0 1.0
  outer loop
    vertex -95.13414417220105 -3.2351655016678222 3.7999999999999985
    vertex -94.87959243939147 -2.285165501667824 3.7999999999999985
    vertex -95.13414417220105 -1.3351655016678265 3.7999999999999985
  endloop
endfacet
facet normal 0.0 0.0 1.0
  outer loop
    vertex -94.87959243939147 -2.285165501667824 3.7999999999999985
    vertex -95.13414417220105 -3.2351655016678222 3.7999999999999985
    vertex -94.18414417220106 -2.9806137688582566 3.7999999999999985
  endloop
endfacet
facet normal 0.0 0.0 1.0
  outer loop
    vertex -94.18414417220106 -2.9806137688582566 3.7999999999999985
    vertex -95.13414417220105 -3.2351655016678222 3.7999999999999985
    vertex -93.23414417220104 -3.2351655016678222 3.7999999999999985
  endloop
endfacet
facet normal 0.0 0.0 1.0
  outer loop
    vertex -93.23414417220104 0.5648344983321799 3.7999999999999985
    vertex -95.13414417220105 4.364834498332171 3.7999999999999985
    vertex -95.13414417220105 0.5648344983321728 3.7999999999999985
  endloop
endfacet
facet normal 0.0 0.0 1.0
  outer loop
    vertex -95.13414417220105 4.364834498332171 3.7999999999999985
    vertex -93.23414417220104 0.5648344983321799 3.7999999999999985
    vertex -93.23414417220104 4.364834498332164 3.7999999999999985
  endloop
endfacet
facet normal 0.0 0.0 1.0
  outer loop
    vertex -93.23414417220104 4.364834498332164 3.7999999999999985
    vertex -93.23414417220104 0.5648344983321799 3.7999999999999985
    vertex -92.284144172201 0.31028276552261186 3.7999999999999985
  endloop
endfacet
facet normal 0.0 0.0 1.0
  outer loop
    vertex -93.23414417220104 4.364834498332164 3.7999999999999985
    vertex -92.284144172201 0.31028276552261186 3.7999999999999985
    vertex -92.284144172201 4.619386231141729 3.7999999999999985
  endloop
endfacet
facet normal 0.0 0.0 1.0
  outer loop
    vertex -92.284144172201 4.619386231141729 3.7999999999999985
    vertex -92.284144172201 0.31028276552261186 3.7999999999999985
    vertex -91.5886959050106 -0.3851655016678233 3.7999999999999985
  endloop
endfacet
facet normal 0.0 0.0 1.0
  outer loop
    vertex -92.284144172201 4.619386231141729 3.7999999999999985
    vertex -91.5886959050106 -0.3851655016678233 3.7999999999999985
    vertex -91.5886959050106 5.314834498332169 3.7999999999999985
  endloop
endfacet
facet normal 0.0 0.0 1.0
  outer loop
    vertex -91.5886959050106 5.314834498332169 3.7999999999999985
    vertex -91.5886959050106 -0.3851655016678233 3.7999999999999985
    vertex -91.33414417220104 -1.3351655016678265 3.7999999999999985
  endloop
endfacet
facet normal 0.0 0.0 1.0
  outer loop
    vertex -91.5886959050106 5.314834498332169 3.7999999999999985
    vertex -91.33414417220104 -1.3351655016678265 3.7999999999999985
    vertex -91.33414417220104 6.264834498332171 3.7999999999999985
  endloop
endfacet
facet normal 0.0 0.0 1.0
  outer loop
    vertex -99.88414417220105 7.910282765522605 3.7999999999999985
    vertex -93.23414417220104 8.164834498332171 3.7999999999999985
    vertex -100.83414417220102 8.164834498332171 3.7999999999999985
  endloop
endfacet
facet normal 0.0 0.0 1.0
  outer loop
    vertex -93.23414417220104 8.164834498332171 3.7999999999999985
    vertex -99.88414417220105 7.910282765522605 3.7999999999999985
    vertex -99.1886959050106 7.214834498332172 3.7999999999999985
  endloop
endfacet
facet normal 0.0 0.0 1.0
  outer loop
    vertex -93.23414417220104 8.164834498332171 3.7999999999999985
    vertex -99.1886959050106 7.214834498332172 3.7999999999999985
    vertex -94.18414417220106 7.910282765522605 3.7999999999999985
  endloop
endfacet
facet normal 0.0 0.0 1.0
  outer loop
    vertex -94.18414417220106 7.910282765522605 3.7999999999999985
    vertex -99.1886959050106 7.214834498332172 3.7999999999999985
    vertex -98.93414417220103 6.264834498332172 3.7999999999999985
  endloop
endfacet
facet normal 0.0 0.0 1.0
  outer loop
    vertex -94.18414417220106 7.910282765522605 3.7999999999999985
    vertex -98.93414417220103 6.264834498332172 3.7999999999999985
    vertex -94.87959243939147 7.214834498332172 3.7999999999999985
  endloop
endfacet
facet normal 0.0 0.0 1.0
  outer loop
    vertex -94.87959243939147 7.214834498332172 3.7999999999999985
    vertex -98.93414417220103 6.264834498332172 3.7999999999999985
    vertex -95.13414417220105 6.264834498332175 3.7999999999999985
  endloop
endfacet
facet normal 0.0 0.0 1.0
  outer loop
    vertex -95.13414417220105 6.264834498332175 3.7999999999999985
    vertex -98.93414417220103 6.264834498332172 3.7999999999999985
    vertex -95.13414417220105 -6.0851655016678246 3.7999999999999985
  endloop
endfacet
facet normal 0.0 0.0 1.0
  outer loop
    vertex -95.13414417220105 6.264834498332175 3.7999999999999985
    vertex -95.13414417220105 -6.0851655016678246 3.7999999999999985
    vertex -95.13414417220105 -3.2351655016678222 3.7999999999999985
  endloop
endfacet
facet normal 0.0 0.0 1.0
  outer loop
    vertex -95.13414417220105 6.264834498332175 3.7999999999999985
    vertex -95.13414417220105 -3.2351655016678222 3.7999999999999985
    vertex -95.13414417220105 -1.3351655016678265 3.7999999999999985
  endloop
endfacet
facet normal 0.0 0.0 1.0
  outer loop
    vertex -95.13414417220105 6.264834498332175 3.7999999999999985
    vertex -95.13414417220105 -1.3351655016678265 3.7999999999999985
    vertex -95.13414417220105 0.5648344983321728 3.7999999999999985
  endloop
endfacet
facet normal 0.0 0.0 1.0
  outer loop
    vertex -95.13414417220105 6.264834498332175 3.7999999999999985
    vertex -95.13414417220105 0.5648344983321728 3.7999999999999985
    vertex -95.13414417220105 4.364834498332171 3.7999999999999985
  endloop
endfacet
facet normal 0.0 0.0 1.0
  outer loop
    vertex -102.47959243939144 -0.3851655016678268 3.7999999999999985
    vertex -102.73414417220101 6.264834498332171 3.7999999999999985
    vertex -102.73414417220101 -1.3351655016678248 3.7999999999999985
  endloop
endfacet
facet normal 0.0 0.0 1.0
  outer loop
    vertex -102.73414417220101 6.264834498332171 3.7999999999999985
    vertex -102.47959243939144 -0.3851655016678268 3.7999999999999985
    vertex -102.47959243939144 5.314834498332171 3.7999999999999985
  endloop
endfacet
facet normal 0.0 0.0 1.0
  outer loop
    vertex -102.47959243939144 5.314834498332171 3.7999999999999985
    vertex -102.47959243939144 -0.3851655016678268 3.7999999999999985
    vertex -101.78414417220102 0.3102827655226048 3.7999999999999985
  endloop
endfacet
facet normal 0.0 0.0 1.0
  outer loop
    vertex -102.47959243939144 5.314834498332171 3.7999999999999985
    vertex -101.78414417220102 0.3102827655226048 3.7999999999999985
    vertex -101.78414417220102 4.61938623114174 3.7999999999999985
  endloop
endfacet
facet normal 0.0 0.0 1.0
  outer loop
    vertex -101.78414417220102 4.61938623114174 3.7999999999999985
    vertex -101.78414417220102 0.3102827655226048 3.7999999999999985
    vertex -100.83414417220102 0.5648344983321715 3.7999999999999985
  endloop
endfacet
facet normal 0.0 0.0 1.0
  outer loop
    vertex -101.78414417220102 4.61938623114174 3.7999999999999985
    vertex -100.83414417220102 0.5648344983321715 3.7999999999999985
    vertex -100.83414417220102 4.364834498332173 3.7999999999999985
  endloop
endfacet
facet normal 0.0 0.0 1.0
  outer loop
    vertex -100.83414417220102 4.364834498332173 3.7999999999999985
    vertex -100.83414417220102 0.5648344983321715 3.7999999999999985
    vertex -98.93414417220103 0.5648344983321757 3.7999999999999985
  endloop
endfacet
facet normal 0.0 0.0 1.0
  outer loop
    vertex -100.83414417220102 4.364834498332173 3.7999999999999985
    vertex -98.93414417220103 0.5648344983321757 3.7999999999999985
    vertex -98.93414417220103 4.364834498332173 3.7999999999999985
  endloop
endfacet
facet normal 0.0 0.0 1.0
  outer loop
    vertex -98.93414417220103 -3.2351655016678222 3.7999999999999985
    vertex -99.88414417220105 -2.9806137688582566 3.7999999999999985
    vertex -100.83414417220102 -3.2351655016678222 3.7999999999999985
  endloop
endfacet
facet normal 0.0 0.0 1.0
  outer loop
    vertex -99.88414417220105 -2.9806137688582566 3.7999999999999985
    vertex -98.93414417220103 -3.2351655016678222 3.7999999999999985
    vertex -99.1886959050106 -2.285165501667824 3.7999999999999985
  endloop
endfacet
facet normal 0.0 0.0 1.0
  outer loop
    vertex -99.1886959050106 -2.285165501667824 3.7999999999999985
    vertex -98.93414417220103 -3.2351655016678222 3.7999999999999985
    vertex -98.93414417220103 -1.3351655016678265 3.7999999999999985
  endloop
endfacet
facet normal -1.0 0.0 0.0
  outer loop
    vertex -98.93414417220103 -3.2351655016678222 3.7999999999999985
    vertex -98.93414417220103 -6.0851655016678246 0.0
    vertex -98.93414417220103 -6.0851655016678246 3.7999999999999985
  endloop
endfacet
facet normal -1.0 0.0 0.0
  outer loop
    vertex -98.93414417220103 -6.0851655016678246 0.0
    vertex -98.93414417220103 -3.2351655016678222 3.7999999999999985
    vertex -98.93414417220103 -3.2351655016678222 0.0
  endloop
endfacet
facet normal 0.0 -1.0 0.0
  outer loop
    vertex -98.93414417220103 -3.2351655016678222 3.7999999999999985
    vertex -100.83414417220102 -3.2351655016678222 0.0
    vertex -98.93414417220103 -3.2351655016678222 0.0
  endloop
endfacet
facet normal 0.0 -1.0 0.0
  outer loop
    vertex -100.83414417220102 -3.2351655016678222 0.0
    vertex -98.93414417220103 -3.2351655016678222 3.7999999999999985
    vertex -100.83414417220102 -3.2351655016678222 3.7999999999999985
  endloop
endfacet
facet normal -0.2588190451025208 0.9659258262890683 0.0
  outer loop
    vertex -100.83414417220102 -3.2351655016678222 3.7999999999999985
    vertex -99.88414417220105 -2.9806137688582566 0.0
    vertex -100.83414417220102 -3.2351655016678222 0.0
  endloop
endfacet
facet normal -0.2588190451025208 0.9659258262890683 0.0
  outer loop
    vertex -99.88414417220105 -2.9806137688582566 0.0
    vertex -100.83414417220102 -3.2351655016678222 3.7999999999999985
    vertex -99.88414417220105 -2.9806137688582566 3.7999999999999985
  endloop
endfacet
facet normal -0.707106781186551 0.707106781186544 0.0
  outer loop
    vertex -99.1886959050106 -2.285165501667824 3.7999999999999985
    vertex -99.88414417220105 -2.9806137688582566 0.0
    vertex -99.88414417220105 -2.9806137688582566 3.7999999999999985
  endloop
endfacet
facet normal -0.707106781186551 0.707106781186544 0.0
  outer loop
    vertex -99.88414417220105 -2.9806137688582566 0.0
    vertex -99.1886959050106 -2.285165501667824 3.7999999999999985
    vertex -99.1886959050106 -2.285165501667824 0.0
  endloop
endfacet
facet normal -0.9659258262890666 0.2588190451025273 0.0
  outer loop
    vertex -98.93414417220103 -1.3351655016678265 3.7999999999999985
    vertex -99.1886959050106 -2.285165501667824 0.0
    vertex -99.1886959050106 -2.285165501667824 3.7999999999999985
  endloop
endfacet
facet normal -0.9659258262890666 0.2588190451025273 0.0
  outer loop
    vertex -99.1886959050106 -2.285165501667824 0.0
    vertex -98.93414417220103 -1.3351655016678265 3.7999999999999985
    vertex -98.93414417220103 -1.3351655016678265 0.0
  endloop
endfacet
facet normal -1.0 0.0 0.0
  outer loop
    vertex -98.93414417220103 0.5648344983321757 3.7999999999999985
    vertex -98.93414417220103 -1.3351655016678265 0.0
    vertex -98.93414417220103 -1.3351655016678265 3.7999999999999985
  endloop
endfacet
facet normal -1.0 0.0 0.0
  outer loop
    vertex -98.93414417220103 -1.3351655016678265 0.0
    vertex -98.93414417220103 0.5648344983321757 3.7999999999999985
    vertex -98.93414417220103 0.5648344983321757 0.0
  endloop
endfacet
facet normal 2.467470672229415e-15 -1.0 0.0
  outer loop
    vertex -98.93414417220103 0.5648344983321757 3.7999999999999985
    vertex -100.83414417220102 0.5648344983321715 0.0
    vertex -98.93414417220103 0.5648344983321757 0.0
  endloop
endfacet
facet normal 2.467470672229415e-15 -1.0 0.0
  outer loop
    vertex -100.83414417220102 0.5648344983321715 0.0
    vertex -98.93414417220103 0.5648344983321757 3.7999999999999985
    vertex -100.83414417220102 0.5648344983321715 3.7999999999999985
  endloop
endfacet
facet normal 0.2588190451025208 -0.9659258262890683 0.0
  outer loop
    vertex -100.83414417220102 0.5648344983321715 3.7999999999999985
    vertex -101.78414417220102 0.3102827655226048 0.0
    vertex -100.83414417220102 0.5648344983321715 0.0
  endloop
endfacet
facet normal 0.2588190451025208 -0.9659258262890683 0.0
  outer loop
    vertex -101.78414417220102 0.3102827655226048 0.0
    vertex -100.83414417220102 0.5648344983321715 3.7999999999999985
    vertex -101.78414417220102 0.3102827655226048 3.7999999999999985
  endloop
endfacet
facet normal 0.707106781186551 -0.707106781186544 0.0
  outer loop
    vertex -101.78414417220102 0.3102827655226048 0.0
    vertex -102.47959243939144 -0.3851655016678268 3.7999999999999985
    vertex -102.47959243939144 -0.3851655016678268 0.0
  endloop
endfacet
facet normal 0.707106781186551 -0.707106781186544 0.0
  outer loop
    vertex -102.47959243939144 -0.3851655016678268 3.7999999999999985
    vertex -101.78414417220102 0.3102827655226048 0.0
    vertex -101.78414417220102 0.3102827655226048 3.7999999999999985
  endloop
endfacet
facet normal 0.9659258262890666 -0.2588190451025273 0.0
  outer loop
    vertex -102.47959243939144 -0.3851655016678268 0.0
    vertex -102.73414417220101 -1.3351655016678248 3.7999999999999985
    vertex -102.73414417220101 -1.3351655016678248 0.0
  endloop
endfacet
facet normal 0.9659258262890666 -0.2588190451025273 0.0
  outer loop
    vertex -102.73414417220101 -1.3351655016678248 3.7999999999999985
    vertex -102.47959243939144 -0.3851655016678268 0.0
    vertex -102.47959243939144 -0.3851655016678268 3.7999999999999985
  endloop
endfacet
facet normal -1.0 0.0 0.0
  outer loop
    vertex -102.73414417220101 6.264834498332171 3.7999999999999985
    vertex -102.73414417220101 -1.3351655016678248 0.0
    vertex -102.73414417220101 -1.3351655016678248 3.7999999999999985
  endloop
endfacet
facet normal -1.0 0.0 0.0
  outer loop
    vertex -102.73414417220101 -1.3351655016678248 0.0
    vertex -102.73414417220101 6.264834498332171 3.7999999999999985
    vertex -102.73414417220101 6.264834498332171 0.0
  endloop
endfacet
facet normal 0.9659258262890666 0.2588190451025268 0.0
  outer loop
    vertex -102.73414417220101 6.264834498332171 0.0
    vertex -102.47959243939144 5.314834498332171 3.7999999999999985
    vertex -102.47959243939144 5.314834498332171 0.0
  endloop
endfacet
facet normal 0.9659258262890666 0.2588190451025268 0.0
  outer loop
    vertex -102.47959243939144 5.314834498332171 3.7999999999999985
    vertex -102.73414417220101 6.264834498332171 0.0
    vertex -102.73414417220101 6.264834498332171 3.7999999999999985
  endloop
endfacet
facet normal 0.707106781186551 0.707106781186544 0.0
  outer loop
    vertex -102.47959243939144 5.314834498332171 0.0
    vertex -101.78414417220102 4.61938623114174 3.7999999999999985
    vertex -101.78414417220102 4.61938623114174 0.0
  endloop
endfacet
facet normal 0.707106781186551 0.707106781186544 0.0
  outer loop
    vertex -101.78414417220102 4.61938623114174 3.7999999999999985
    vertex -102.47959243939144 5.314834498332171 0.0
    vertex -102.47959243939144 5.314834498332171 3.7999999999999985
  endloop
endfacet
facet normal 0.2588190451025215 0.965925826289068 0.0
  outer loop
    vertex -101.78414417220102 4.61938623114174 3.7999999999999985
    vertex -100.83414417220102 4.364834498332173 0.0
    vertex -101.78414417220102 4.61938623114174 0.0
  endloop
endfacet
facet normal 0.2588190451025215 0.965925826289068 0.0
  outer loop
    vertex -100.83414417220102 4.364834498332173 0.0
    vertex -101.78414417220102 4.61938623114174 3.7999999999999985
    vertex -100.83414417220102 4.364834498332173 3.7999999999999985
  endloop
endfacet
facet normal 3.524958103184877e-16 1.0 0.0
  outer loop
    vertex -100.83414417220102 4.364834498332173 3.7999999999999985
    vertex -98.93414417220103 4.364834498332173 0.0
    vertex -100.83414417220102 4.364834498332173 0.0
  endloop
endfacet
facet normal 3.524958103184877e-16 1.0 0.0
  outer loop
    vertex -98.93414417220103 4.364834498332173 0.0
    vertex -100.83414417220102 4.364834498332173 3.7999999999999985
    vertex -98.93414417220103 4.364834498332173 3.7999999999999985
  endloop
endfacet
facet normal -1.0 0.0 0.0
  outer loop
    vertex -98.93414417220103 6.264834498332172 3.7999999999999985
    vertex -98.93414417220103 4.364834498332173 0.0
    vertex -98.93414417220103 4.364834498332173 3.7999999999999985
  endloop
endfacet
facet normal -1.0 0.0 0.0
  outer loop
    vertex -98.93414417220103 4.364834498332173 0.0
    vertex -98.93414417220103 6.264834498332172 3.7999999999999985
    vertex -98.93414417220103 6.264834498332172 0.0
  endloop
endfacet
facet normal -0.9659258262890666 -0.2588190451025268 0.0
  outer loop
    vertex -99.1886959050106 7.214834498332172 3.7999999999999985
    vertex -98.93414417220103 6.264834498332172 0.0
    vertex -98.93414417220103 6.264834498332172 3.7999999999999985
  endloop
endfacet
facet normal -0.9659258262890666 -0.2588190451025268 0.0
  outer loop
    vertex -98.93414417220103 6.264834498332172 0.0
    vertex -99.1886959050106 7.214834498332172 3.7999999999999985
    vertex -99.1886959050106 7.214834498332172 0.0
  endloop
endfacet
facet normal -0.707106781186551 -0.707106781186544 0.0
  outer loop
    vertex -99.88414417220105 7.910282765522605 3.7999999999999985
    vertex -99.1886959050106 7.214834498332172 0.0
    vertex -99.1886959050106 7.214834498332172 3.7999999999999985
  endloop
endfacet
facet normal -0.707106781186551 -0.707106781186544 0.0
  outer loop
    vertex -99.1886959050106 7.214834498332172 0.0
    vertex -99.88414417220105 7.910282765522605 3.7999999999999985
    vertex -99.88414417220105 7.910282765522605 0.0
  endloop
endfacet
facet normal -0.2588190451025208 -0.9659258262890683 0.0
  outer loop
    vertex -99.88414417220105 7.910282765522605 3.7999999999999985
    vertex -100.83414417220102 8.164834498332171 0.0
    vertex -99.88414417220105 7.910282765522605 0.0
  endloop
endfacet
facet normal -0.2588190451025208 -0.9659258262890683 0.0
  outer loop
    vertex -100.83414417220102 8.164834498332171 0.0
    vertex -99.88414417220105 7.910282765522605 3.7999999999999985
    vertex -100.83414417220102 8.164834498332171 3.7999999999999985
  endloop
endfacet
facet normal 0.0 1.0 0.0
  outer loop
    vertex -100.83414417220102 8.164834498332171 3.7999999999999985
    vertex -93.23414417220104 8.164834498332171 0.0
    vertex -100.83414417220102 8.164834498332171 0.0
  endloop
endfacet
facet normal 0.0 1.0 0.0
  outer loop
    vertex -93.23414417220104 8.164834498332171 0.0
    vertex -100.83414417220102 8.164834498332171 3.7999999999999985
    vertex -93.23414417220104 8.164834498332171 3.7999999999999985
  endloop
endfacet
facet normal 0.2588190451025208 -0.9659258262890683 0.0
  outer loop
    vertex -93.23414417220104 8.164834498332171 3.7999999999999985
    vertex -94.18414417220106 7.910282765522605 0.0
    vertex -93.23414417220104 8.164834498332171 0.0
  endloop
endfacet
facet normal 0.2588190451025208 -0.9659258262890683 0.0
  outer loop
    vertex -94.18414417220106 7.910282765522605 0.0
    vertex -93.23414417220104 8.164834498332171 3.7999999999999985
    vertex -94.18414417220106 7.910282765522605 3.7999999999999985
  endloop
endfacet
facet normal 0.707106781186551 -0.707106781186544 0.0
  outer loop
    vertex -94.18414417220106 7.910282765522605 0.0
    vertex -94.87959243939147 7.214834498332172 3.7999999999999985
    vertex -94.87959243939147 7.214834498332172 0.0
  endloop
endfacet
facet normal 0.707106781186551 -0.707106781186544 0.0
  outer loop
    vertex -94.87959243939147 7.214834498332172 3.7999999999999985
    vertex -94.18414417220106 7.910282765522605 0.0
    vertex -94.18414417220106 7.910282765522605 3.7999999999999985
  endloop
endfacet
facet normal 0.9659258262890666 -0.2588190451025273 0.0
  outer loop
    vertex -94.87959243939147 7.214834498332172 0.0
    vertex -95.13414417220105 6.264834498332175 3.7999999999999985
    vertex -95.13414417220105 6.264834498332175 0.0
  endloop
endfacet
facet normal 0.9659258262890666 -0.2588190451025273 0.0
  outer loop
    vertex -95.13414417220105 6.264834498332175 3.7999999999999985
    vertex -94.87959243939147 7.214834498332172 0.0
    vertex -94.87959243939147 7.214834498332172 3.7999999999999985
  endloop
endfacet
facet normal 1.0 0.0 0.0
  outer loop
    vertex -95.13414417220105 6.264834498332175 0.0
    vertex -95.13414417220105 4.364834498332171 3.7999999999999985
    vertex -95.13414417220105 4.364834498332171 0.0
  endloop
endfacet
facet normal 1.0 0.0 0.0
  outer loop
    vertex -95.13414417220105 4.364834498332171 3.7999999999999985
    vertex -95.13414417220105 6.264834498332175 0.0
    vertex -95.13414417220105 6.264834498332175 3.7999999999999985
  endloop
endfacet
facet normal 3.5249581031848787e-15 1.0 0.0
  outer loop
    vertex -95.13414417220105 4.364834498332171 3.7999999999999985
    vertex -93.23414417220104 4.364834498332164 0.0
    vertex -95.13414417220105 4.364834498332171 0.0
  endloop
endfacet
facet normal 3.5249581031848787e-15 1.0 0.0
  outer loop
    vertex -93.23414417220104 4.364834498332164 0.0
    vertex -95.13414417220105 4.364834498332171 3.7999999999999985
    vertex -93.23414417220104 4.364834498332164 3.7999999999999985
  endloop
endfacet
facet normal -0.25881904510252196 0.965925826289068 0.0
  outer loop
    vertex -93.23414417220104 4.364834498332164 3.7999999999999985
    vertex -92.284144172201 4.619386231141729 0.0
    vertex -93.23414417220104 4.364834498332164 0.0
  endloop
endfacet
facet normal -0.25881904510252196 0.965925826289068 0.0
  outer loop
    vertex -92.284144172201 4.619386231141729 0.0
    vertex -93.23414417220104 4.364834498332164 3.7999999999999985
    vertex -92.284144172201 4.619386231141729 3.7999999999999985
  endloop
endfacet
facet normal -0.7071067811865419 0.7071067811865529 0.0
  outer loop
    vertex -92.284144172201 4.619386231141729 3.7999999999999985
    vertex -91.5886959050106 5.314834498332169 0.0
    vertex -92.284144172201 4.619386231141729 0.0
  endloop
endfacet
facet normal -0.7071067811865419 0.7071067811865529 0.0
  outer loop
    vertex -91.5886959050106 5.314834498332169 0.0
    vertex -92.284144172201 4.619386231141729 3.7999999999999985
    vertex -91.5886959050106 5.314834498332169 3.7999999999999985
  endloop
endfacet
facet normal -0.9659258262890696 0.25881904510251563 0.0
  outer loop
    vertex -91.33414417220104 6.264834498332171 3.7999999999999985
    vertex -91.5886959050106 5.314834498332169 0.0
    vertex -91.5886959050106 5.314834498332169 3.7999999999999985
  endloop
endfacet
facet normal -0.9659258262890696 0.25881904510251563 0.0
  outer loop
    vertex -91.5886959050106 5.314834498332169 0.0
    vertex -91.33414417220104 6.264834498332171 3.7999999999999985
    vertex -91.33414417220104 6.264834498332171 0.0
  endloop
endfacet
facet normal 1.0 0.0 0.0
  outer loop
    vertex -91.33414417220104 6.264834498332171 0.0
    vertex -91.33414417220104 -1.3351655016678265 3.7999999999999985
    vertex -91.33414417220104 -1.3351655016678265 0.0
  endloop
endfacet
facet normal 1.0 0.0 0.0
  outer loop
    vertex -91.33414417220104 -1.3351655016678265 3.7999999999999985
    vertex -91.33414417220104 6.264834498332171 0.0
    vertex -91.33414417220104 6.264834498332171 3.7999999999999985
  endloop
endfacet
facet normal -0.9659258262890696 -0.25881904510251563 0.0
  outer loop
    vertex -91.5886959050106 -0.3851655016678233 3.7999999999999985
    vertex -91.33414417220104 -1.3351655016678265 0.0
    vertex -91.33414417220104 -1.3351655016678265 3.7999999999999985
  endloop
endfacet
facet normal -0.9659258262890696 -0.25881904510251563 0.0
  outer loop
    vertex -91.33414417220104 -1.3351655016678265 0.0
    vertex -91.5886959050106 -0.3851655016678233 3.7999999999999985
    vertex -91.5886959050106 -0.3851655016678233 0.0
  endloop
endfacet
facet normal -0.7071067811865419 -0.7071067811865529 0.0
  outer loop
    vertex -91.5886959050106 -0.3851655016678233 3.7999999999999985
    vertex -92.284144172201 0.31028276552261186 0.0
    vertex -91.5886959050106 -0.3851655016678233 0.0
  endloop
endfacet
facet normal -0.7071067811865419 -0.7071067811865529 0.0
  outer loop
    vertex -92.284144172201 0.31028276552261186 0.0
    vertex -91.5886959050106 -0.3851655016678233 3.7999999999999985
    vertex -92.284144172201 0.31028276552261186 3.7999999999999985
  endloop
endfacet
facet normal -0.25881904510252235 -0.965925826289068 0.0
  outer loop
    vertex -92.284144172201 0.31028276552261186 3.7999999999999985
    vertex -93.23414417220104 0.5648344983321799 0.0
    vertex -92.284144172201 0.31028276552261186 0.0
  endloop
endfacet
facet normal -0.25881904510252235 -0.965925826289068 0.0
  outer loop
    vertex -93.23414417220104 0.5648344983321799 0.0
    vertex -92.284144172201 0.31028276552261186 3.7999999999999985
    vertex -93.23414417220104 0.5648344983321799 3.7999999999999985
  endloop
endfacet
facet normal 4.05370181866261e-15 -1.0 0.0
  outer loop
    vertex -93.23414417220104 0.5648344983321799 3.7999999999999985
    vertex -95.13414417220105 0.5648344983321728 0.0
    vertex -93.23414417220104 0.5648344983321799 0.0
  endloop
endfacet
facet normal 4.05370181866261e-15 -1.0 0.0
  outer loop
    vertex -95.13414417220105 0.5648344983321728 0.0
    vertex -93.23414417220104 0.5648344983321799 3.7999999999999985
    vertex -95.13414417220105 0.5648344983321728 3.7999999999999985
  endloop
endfacet
facet normal 1.0 0.0 0.0
  outer loop
    vertex -95.13414417220105 0.5648344983321728 0.0
    vertex -95.13414417220105 -1.3351655016678265 3.7999999999999985
    vertex -95.13414417220105 -1.3351655016678265 0.0
  endloop
endfacet
facet normal 1.0 0.0 0.0
  outer loop
    vertex -95.13414417220105 -1.3351655016678265 3.7999999999999985
    vertex -95.13414417220105 0.5648344983321728 0.0
    vertex -95.13414417220105 0.5648344983321728 3.7999999999999985
  endloop
endfacet
facet normal 0.9659258262890666 0.2588190451025273 0.0
  outer loop
    vertex -95.13414417220105 -1.3351655016678265 0.0
    vertex -94.87959243939147 -2.285165501667824 3.7999999999999985
    vertex -94.87959243939147 -2.285165501667824 0.0
  endloop
endfacet
facet normal 0.9659258262890666 0.2588190451025273 0.0
  outer loop
    vertex -94.87959243939147 -2.285165501667824 3.7999999999999985
    vertex -95.13414417220105 -1.3351655016678265 0.0
    vertex -95.13414417220105 -1.3351655016678265 3.7999999999999985
  endloop
endfacet
facet normal 0.707106781186551 0.707106781186544 0.0
  outer loop
    vertex -94.87959243939147 -2.285165501667824 0.0
    vertex -94.18414417220106 -2.9806137688582566 3.7999999999999985
    vertex -94.18414417220106 -2.9806137688582566 0.0
  endloop
endfacet
facet normal 0.707106781186551 0.707106781186544 0.0
  outer loop
    vertex -94.18414417220106 -2.9806137688582566 3.7999999999999985
    vertex -94.87959243939147 -2.285165501667824 0.0
    vertex -94.87959243939147 -2.285165501667824 3.7999999999999985
  endloop
endfacet
facet normal 0.2588190451025208 0.9659258262890683 0.0
  outer loop
    vertex -94.18414417220106 -2.9806137688582566 3.7999999999999985
    vertex -93.23414417220104 -3.2351655016678222 0.0
    vertex -94.18414417220106 -2.9806137688582566 0.0
  endloop
endfacet
facet normal 0.2588190451025208 0.9659258262890683 0.0
  outer loop
    vertex -93.23414417220104 -3.2351655016678222 0.0
    vertex -94.18414417220106 -2.9806137688582566 3.7999999999999985
    vertex -93.23414417220104 -3.2351655016678222 3.7999999999999985
  endloop
endfacet
facet normal 0.0 -1.0 0.0
  outer loop
    vertex -93.23414417220104 -3.2351655016678222 3.7999999999999985
    vertex -95.13414417220105 -3.2351655016678222 0.0
    vertex -93.23414417220104 -3.2351655016678222 0.0
  endloop
endfacet
facet normal 0.0 -1.0 0.0
  outer loop
    vertex -95.13414417220105 -3.2351655016678222 0.0
    vertex -93.23414417220104 -3.2351655016678222 3.7999999999999985
    vertex -95.13414417220105 -3.2351655016678222 3.7999999999999985
  endloop
endfacet
facet normal 1.0 0.0 0.0
  outer loop
    vertex -95.13414417220105 -3.2351655016678222 0.0
    vertex -95.13414417220105 -6.0851655016678246 3.7999999999999985
    vertex -95.13414417220105 -6.0851655016678246 0.0
  endloop
endfacet
facet normal 1.0 0.0 0.0
  outer loop
    vertex -95.13414417220105 -6.0851655016678246 3.7999999999999985
    vertex -95.13414417220105 -3.2351655016678222 0.0
    vertex -95.13414417220105 -3.2351655016678222 3.7999999999999985
  endloop
endfacet
facet normal 0.0 -1.0 0.0
  outer loop
    vertex -95.13414417220105 -6.0851655016678246 3.7999999999999985
    vertex -98.93414417220103 -6.0851655016678246 0.0
    vertex -95.13414417220105 -6.0851655016678246 0.0
  endloop
endfacet
facet normal 0.0 -1.0 0.0
  outer loop
    vertex -98.93414417220103 -6.0851655016678246 0.0
    vertex -95.13414417220105 -6.0851655016678246 3.7999999999999985
    vertex -98.93414417220103 -6.0851655016678246 3.7999999999999985
  endloop
endfacet
endsolid Spiral Chess Set 3
