# Created using Spin 3D

# Vertex Array
v -56.798 -0.004 -17.236
v -56.798 -0.004 -34.610
v -74.172 -0.004 -17.236
v -39.422 -0.004 -17.236
v -48.598 -0.004 -57.044
v -47.242 -0.004 -51.986
v -30.248 -0.004 -57.044
v -39.422 -0.004 0.140
v -39.422 -0.004 17.512
v -35.514 -0.004 0.140
v -43.332 -0.004 -34.610
v -45.804 -0.004 -45.602
v -22.048 -0.004 0.140
v -39.422 -0.004 -51.986
v -32.740 -0.004 -45.302
v -31.150 -0.004 -51.986
v 0.384 -0.004 -8.062
v 0.384 -0.004 -26.412
v -4.672 -0.004 -25.054
v -56.798 -0.004 0.140
v -4.672 -0.004 -34.610
v -4.672 -0.004 -51.986
v -22.048 -0.004 -34.610
v -33.040 -0.004 11.132
v -47.696 -0.004 17.512
v -46.106 -0.004 10.832
v -43.560 -0.004 0.140
v -74.172 -0.004 -34.610
v -74.172 -0.004 -25.510
v -74.172 -0.004 -51.986
v -39.422 -0.004 -34.610
v -22.048 -0.004 17.512
v -4.672 -0.004 17.512
v -31.606 -0.004 17.512
v -35.286 -0.004 -34.610
v -4.672 -0.004 -17.236
v -22.048 -0.004 -17.236
v -4.672 -0.004 -8.962
v -56.798 -0.004 17.512
v -4.672 -0.004 0.140
v -74.172 -0.004 -9.418
v -22.048 -0.004 -51.986
v -56.798 -0.004 -51.986
v -74.172 -0.004 0.140
v -74.172 -0.004 17.512
v -74.172 4.004 -34.610
v -56.798 4.004 -34.610
v -74.172 4.004 -25.510
v -56.798 4.004 0.140
v -39.422 4.004 -17.236
v -43.560 4.004 0.140
v -74.172 4.004 -17.236
v -56.798 4.004 -17.236
v -31.602 4.004 17.514
v -39.422 4.004 17.512
v -31.606 4.004 17.512
v -22.048 4.004 -17.236
v -22.048 4.004 -34.610
v -47.696 4.004 17.512
v -56.798 4.004 17.512
v -33.040 4.004 11.132
v -35.514 4.004 0.140
v -47.242 4.004 -51.986
v -30.248 4.004 -57.044
v -39.422 4.004 -51.986
v -22.048 4.004 0.140
v -22.048 4.004 17.514
v -22.048 4.004 -51.986
v -4.672 4.004 -51.986
v -4.672 4.004 -17.236
v -4.672 4.004 -25.054
v -39.422 4.004 -34.610
v -4.672 4.004 -34.610
v -74.172 4.004 0.140
v -74.172 4.004 17.512
v -48.598 4.004 -57.044
v -39.422 4.004 0.140
v 0.384 4.004 -8.062
v -46.106 4.004 10.832
v -74.172 4.004 -51.986
v -4.672 4.004 17.514
v -4.672 4.004 -8.962
v -56.798 4.004 -51.986
v -31.150 4.004 -51.986
v -4.672 4.004 0.140
v -74.172 4.004 -9.418
v 0.384 4.004 -26.412
v -31.606 0.900 17.512
v -59.146 1.730 17.512
v -22.048 2.002 17.512
v -47.696 0.952 17.512
v -56.798 2.002 17.512
v -47.696 3.050 17.512
v -56.798 1.376 17.512
v -31.606 3.102 17.512
v -31.150 3.050 -51.986
v -31.150 0.952 -51.986
v -22.048 2.002 -51.986
v -22.048 1.376 -51.986
v -19.698 1.730 -51.986
v -56.798 2.002 -51.986
v -47.242 0.900 -51.986
v -58.998 2.254 -51.986
v -56.798 2.582 -51.986
v -47.242 3.102 -51.986
v -74.172 2.002 -9.418
v -74.172 2.490 -25.510
v -74.172 2.450 -9.418
v -74.172 2.002 0.140
v -74.172 2.214 -1.710
v -74.172 2.388 0.140
v -74.172 1.730 -36.960
v -74.172 2.002 -38.746
v -74.172 2.668 -5.654
v -74.172 2.322 -2.662
v -74.172 2.002 -3.996
v -74.172 2.002 -34.610
v -74.172 1.534 -35.664
v -74.172 1.526 -25.510
v -74.172 1.334 -28.818
v -74.172 2.002 -25.510
v -74.172 1.420 0.140
v -74.172 0.952 -25.510
v -74.172 3.002 0.140
v -74.172 3.050 -25.510
v -74.172 2.002 -30.702
v -74.172 2.270 -36.960
v -74.172 2.774 -25.510
v -74.172 1.798 -32.852
v -74.172 1.688 -31.916
v -74.172 2.254 2.342
v -74.172 2.462 0.952
v -74.172 2.582 0.140
v -74.172 1.104 -32.814
v -74.172 1.000 -34.610
v -74.172 1.236 -33.690
v -74.172 1.748 2.342
v -74.172 2.002 4.048
v -74.172 1.634 -34.610
v -74.172 3.102 -9.418
v -74.172 2.884 -1.894
v -74.172 2.742 -0.936
v -74.172 1.376 -34.610
v -74.172 1.498 -9.418
v -74.172 2.626 -34.610
v -74.172 1.180 -9.418
v -74.172 0.900 -9.418
v -4.672 2.256 -36.814
v -4.672 2.462 -35.422
v -4.672 2.002 0.140
v -4.672 2.002 -34.610
v -4.672 1.854 -34.610
v -4.672 1.824 -33.762
v -4.672 1.376 0.140
v -4.672 1.730 2.486
v -4.672 1.180 -25.054
v -4.672 1.498 -25.054
v -4.672 1.664 -33.008
v -4.672 3.050 -8.962
v -4.672 0.952 -8.962
v -4.672 3.102 -25.054
v -4.672 2.846 -28.188
v -4.672 2.908 -32.426
v -4.672 2.814 -30.738
v -4.672 2.268 -33.338
v -4.672 2.352 -34.234
v -4.672 2.524 -32.112
v -4.672 2.694 -28.600
v -4.672 2.742 -29.460
v -4.672 2.214 -32.760
v -4.672 2.188 -36.232
v -4.672 2.188 -36.234
v -4.672 1.762 -34.610
v -4.672 1.682 -34.610
v -4.672 1.746 -36.814
v -4.672 2.002 -38.522
v -4.672 2.800 -43.882
v -4.672 2.386 -34.610
v -4.672 2.320 -34.610
v -4.672 1.846 -35.962
v -4.672 1.890 -35.566
v -4.672 3.030 -34.610
v -4.672 2.584 -34.610
v -4.672 3.002 -43.298
v -4.672 2.254 -36.814
v -4.672 1.814 -36.232
v -4.672 0.900 -25.054
v -4.672 1.476 -32.110
v -4.672 1.418 -34.610
v -4.672 2.002 -30.474

# Normal Array
vn -0.000 -1.000 -0.000
vn 0.000 -1.000 -0.000
vn 0.000 -1.000 -0.000
vn 0.000 -1.000 -0.000
vn -0.000 -1.000 -0.000
vn 0.000 -1.000 -0.000
vn 0.000 -1.000 -0.000
vn -0.000 -1.000 -0.000
vn 0.000 -1.000 -0.000
vn -0.000 -1.000 -0.000
vn 0.000 -1.000 -0.000
vn 0.000 -1.000 -0.000
vn 0.000 -1.000 -0.000
vn 0.000 -1.000 -0.000
vn -0.000 -1.000 -0.000
vn 0.000 -1.000 -0.000
vn 0.000 -1.000 -0.000
vn 0.000 -1.000 -0.000
vn -0.000 -1.000 -0.000
vn 0.000 -1.000 -0.000
vn 0.000 -1.000 -0.000
vn -0.000 -1.000 -0.000
vn -0.000 -1.000 -0.000
vn 0.000 -1.000 -0.000
vn -0.000 -1.000 -0.000
vn 0.000 -1.000 -0.000
vn 0.000 -1.000 -0.000
vn -0.000 -1.000 -0.000
vn 0.000 -1.000 -0.000
vn 0.000 -1.000 -0.000
vn 0.000 -1.000 -0.000
vn 0.000 -1.000 -0.000
vn 0.000 -1.000 -0.000
vn 0.000 -1.000 -0.000
vn 0.000 -1.000 -0.000
vn -0.000 -1.000 -0.000
vn -0.000 -1.000 -0.000
vn -0.000 -1.000 -0.000
vn 0.000 -1.000 -0.000
vn 0.000 -1.000 -0.000
vn 0.000 -1.000 -0.000
vn -0.000 -1.000 -0.000
vn -0.000 -1.000 -0.000
vn -0.000 -1.000 -0.000
vn -0.000 -1.000 -0.000
vn -0.000 -1.000 -0.000
vn 0.000 -1.000 -0.000
vn 0.000 -1.000 -0.000
vn 0.000 -1.000 -0.000
vn 0.000 -1.000 -0.000
vn 0.000 -1.000 -0.000
vn 0.000 -1.000 -0.000
vn 0.000 -1.000 -0.000
vn -0.000 -1.000 -0.000
vn 0.000 -1.000 -0.000
vn 0.000 -1.000 -0.000
vn 0.000 -1.000 -0.000
vn 0.000 -1.000 -0.000
vn 0.000 -1.000 -0.000
vn -0.000 -1.000 -0.000
vn 0.000 -1.000 -0.000
vn -0.000 -1.000 -0.000
vn 0.000 1.000 0.000
vn -0.000 1.000 0.000
vn 0.000 1.000 0.000
vn 0.000 1.000 0.000
vn 0.000 1.000 0.000
vn 0.000 1.000 0.000
vn 0.000 1.000 0.000
vn 0.000 1.000 0.000
vn 0.000 1.000 0.000
vn -0.000 1.000 0.000
vn 0.000 1.000 0.000
vn 0.000 1.000 0.000
vn 0.000 1.000 0.000
vn -0.000 1.000 0.000
vn -0.000 1.000 0.000
vn 0.000 1.000 0.000
vn 0.000 1.000 0.000
vn 0.000 1.000 0.000
vn 0.000 1.000 0.000
vn 0.000 1.000 0.000
vn 0.000 1.000 0.000
vn 0.000 1.000 0.000
vn -0.000 1.000 0.000
vn 0.000 1.000 0.000
vn 0.000 1.000 0.000
vn 0.000 1.000 0.000
vn 0.000 1.000 0.000
vn 0.000 1.000 0.000
vn 0.000 1.000 0.000
vn 0.000 1.000 0.000
vn 0.000 1.000 0.000
vn 0.000 1.000 0.000
vn 0.000 1.000 0.000
vn 0.000 1.000 0.000
vn 0.000 1.000 0.000
vn 0.000 1.000 0.000
vn 0.000 1.000 0.000
vn 0.000 1.000 0.000
vn 0.000 1.000 0.000
vn 0.000 1.000 0.000
vn 0.000 1.000 0.000
vn 0.000 1.000 0.000
vn 0.000 1.000 0.000
vn -0.000 1.000 0.000
vn 0.000 1.000 0.000
vn 0.000 1.000 0.000
vn 0.000 1.000 0.000
vn 0.000 1.000 0.000
vn 0.000 1.000 0.000
vn 0.000 1.000 0.000
vn 0.000 1.000 0.000
vn 0.000 1.000 0.000
vn 0.000 1.000 0.000
vn 0.000 1.000 0.000
vn 0.000 1.000 0.000
vn -0.000 1.000 0.000
vn 0.000 1.000 0.000
vn 0.000 -0.000 1.000
vn 0.000 0.000 1.000
vn 0.000 0.000 1.000
vn 0.000 0.000 1.000
vn 0.000 -0.000 1.000
vn -0.000 0.000 1.000
vn 0.000 -0.000 1.000
vn 0.000 -0.000 1.000
vn 0.000 0.000 1.000
vn 0.000 0.000 1.000
vn -0.000 0.000 1.000
vn 0.000 0.000 1.000
vn 0.000 0.000 1.000
vn 0.000 0.000 1.000
vn 0.000 0.000 1.000
vn 0.000 0.000 1.000
vn 0.000 -0.000 1.000
vn 0.000 0.000 1.000
vn 0.000 0.000 1.000
vn 0.000 0.000 1.000
vn 0.000 0.000 1.000
vn 0.000 -0.000 1.000
vn 0.000 0.000 -1.000
vn 0.000 0.000 -1.000
vn 0.984 -0.000 0.176
vn 0.984 0.000 0.176
vn 0.984 -0.000 0.176
vn 0.984 -0.000 0.176
vn 0.000 0.000 -1.000
vn 0.000 0.000 -1.000
vn 0.000 0.000 -1.000
vn 0.000 0.000 -1.000
vn 0.000 0.000 -1.000
vn 0.000 0.000 -1.000
vn 0.000 -0.000 -1.000
vn 0.000 0.000 -1.000
vn 0.000 0.000 -1.000
vn 0.000 -0.000 -1.000
vn 0.000 0.000 -1.000
vn 0.000 0.000 -1.000
vn 0.000 0.000 -1.000
vn 0.000 -0.000 -1.000
vn 0.000 0.000 -1.000
vn 0.000 0.000 -1.000
vn 0.000 0.000 -1.000
vn 0.000 -0.000 -1.000
vn 0.000 0.000 -1.000
vn 0.000 0.000 -1.000
vn 0.000 0.000 -1.000
vn 0.000 0.000 -1.000
vn 0.000 0.000 -1.000
vn 0.000 0.000 -1.000
vn -0.966 0.000 0.259
vn -0.966 0.000 0.259
vn -0.966 0.000 0.259
vn -0.966 0.000 0.259
vn -1.000 0.000 0.000
vn -1.000 0.000 0.000
vn -1.000 0.000 -0.000
vn -1.000 0.000 0.000
vn -1.000 0.000 0.000
vn -1.000 0.000 -0.000
vn -1.000 0.000 0.000
vn -1.000 0.000 0.000
vn -1.000 0.000 0.000
vn -1.000 0.000 0.000
vn -1.000 0.000 0.000
vn -1.000 0.000 0.000
vn -1.000 0.000 0.000
vn -1.000 0.000 0.000
vn -1.000 0.000 0.000
vn -1.000 0.000 0.000
vn -1.000 0.000 0.000
vn -1.000 0.000 -0.000
vn -1.000 0.000 0.000
vn -1.000 0.000 -0.000
vn -1.000 0.000 0.000
vn -1.000 0.000 0.000
vn -1.000 0.000 0.000
vn -1.000 0.000 -0.000
vn -1.000 0.000 0.000
vn -1.000 0.000 -0.000
vn -1.000 0.000 0.000
vn -1.000 0.000 0.000
vn -1.000 0.000 0.000
vn -1.000 0.000 -0.000
vn -1.000 0.000 0.000
vn -1.000 0.000 0.000
vn -1.000 -0.000 0.000
vn -1.000 0.000 -0.000
vn -1.000 0.000 0.000
vn -1.000 0.000 0.000
vn -1.000 0.000 -0.000
vn -1.000 0.000 0.000
vn -1.000 0.000 0.000
vn -1.000 0.000 0.000
vn -1.000 0.000 0.000
vn -1.000 0.000 0.000
vn -1.000 0.000 -0.000
vn -1.000 0.000 0.000
vn -1.000 0.000 0.000
vn -1.000 0.000 0.000
vn -1.000 0.000 0.000
vn -1.000 0.000 0.000
vn -1.000 0.000 0.000
vn -1.000 0.000 0.000
vn -1.000 0.000 -0.000
vn -1.000 0.000 0.000
vn -1.000 0.000 0.000
vn -1.000 0.000 0.000
vn -1.000 0.000 0.000
vn -1.000 0.000 -0.000
vn -1.000 0.000 0.000
vn -1.000 0.000 0.000
vn -1.000 0.000 0.000
vn -1.000 -0.000 0.000
vn -1.000 -0.000 0.000
vn -1.000 0.000 0.000
vn -1.000 0.000 0.000
vn -1.000 0.000 -0.000
vn -1.000 0.000 0.000
vn -1.000 0.000 0.000
vn -1.000 0.000 0.000
vn -1.000 0.000 0.000
vn -1.000 0.000 0.000
vn -1.000 0.000 0.000
vn -1.000 0.000 0.000
vn -1.000 0.000 0.000
vn -1.000 0.000 -0.000
vn -1.000 0.000 0.000
vn -1.000 0.000 0.000
vn -1.000 0.000 -0.000
vn -1.000 0.000 0.000
vn -1.000 0.000 0.000
vn -1.000 0.000 -0.000
vn -1.000 0.000 0.000
vn -1.000 0.000 0.000
vn -1.000 0.000 0.000
vn -1.000 0.000 0.000
vn -1.000 0.000 0.000
vn -1.000 0.000 0.000
vn -1.000 0.000 0.000
vn -1.000 0.000 0.000
vn -1.000 0.000 0.000
vn -1.000 0.000 0.000
vn -1.000 0.000 -0.000
vn -1.000 0.000 0.000
vn -1.000 0.000 0.000
vn -1.000 0.000 0.000
vn -1.000 0.000 -0.000
vn -1.000 0.000 -0.000
vn -1.000 0.000 -0.000
vn 1.000 0.000 0.000
vn 1.000 0.000 -0.000
vn 1.000 0.000 0.000
vn 1.000 -0.000 0.000
vn 1.000 0.000 0.000
vn 1.000 -0.000 0.000
vn 1.000 -0.000 0.000
vn 1.000 -0.000 0.000
vn 1.000 0.000 -0.000
vn 1.000 0.000 0.000
vn 1.000 0.000 0.000
vn 1.000 0.000 -0.000
vn 1.000 0.000 -0.000
vn 1.000 -0.000 0.000
vn 1.000 0.000 -0.000
vn 1.000 0.000 -0.000
vn 1.000 0.000 0.000
vn 1.000 0.000 -0.000
vn 1.000 0.000 0.000
vn 1.000 0.000 0.000
vn 1.000 0.000 0.000
vn 1.000 0.000 0.000
vn 1.000 0.000 0.000
vn 1.000 0.000 0.000
vn 1.000 0.000 0.000
vn 1.000 0.000 0.000
vn 1.000 0.000 0.000
vn 1.000 0.000 0.000
vn 1.000 0.000 0.000
vn 1.000 -0.000 0.000
vn 1.000 0.000 -0.000
vn 1.000 0.000 -0.000
vn 1.000 0.000 0.000
vn 1.000 0.000 0.000
vn 1.000 0.000 -0.000
vn 1.000 -0.000 0.000
vn 1.000 0.000 0.000
vn 1.000 0.000 0.000
vn 1.000 -0.000 0.000
vn 1.000 -0.000 0.000
vn 1.000 0.000 0.000
vn 1.000 -0.000 0.000
vn 1.000 0.000 0.000
vn 1.000 0.000 0.000
vn 1.000 0.000 -0.000
vn 1.000 0.000 -0.000
vn 1.000 0.000 -0.000
vn 1.000 -0.000 0.000
vn 1.000 0.000 0.000
vn 1.000 0.000 0.000
vn 1.000 0.000 0.000
vn 1.000 0.000 0.000
vn 1.000 0.000 0.000
vn 1.000 0.000 0.000
vn 1.000 0.000 0.000
vn 1.000 0.000 0.000
vn 1.000 0.000 -0.000
vn 1.000 0.000 0.000
vn 1.000 0.000 -0.000
vn 1.000 0.000 0.000
vn 1.000 0.000 -0.000
vn 1.000 -0.000 0.000
vn 1.000 0.000 -0.000
vn 1.000 0.000 0.000
vn 1.000 0.000 0.000
vn 1.000 0.000 0.000
vn 1.000 0.000 0.000
vn 1.000 -0.000 0.000
vn 1.000 0.000 0.000
vn 1.000 0.000 -0.000
vn 1.000 0.000 0.000
vn 1.000 0.000 0.000
vn 1.000 0.000 0.000
vn 1.000 0.000 0.000
vn 1.000 -0.000 0.000
vn 1.000 0.000 0.000
vn 1.000 -0.000 0.000
vn 1.000 0.000 0.000
vn 1.000 -0.000 0.000
vn 1.000 0.000 0.000
vn 1.000 0.000 0.000
vn 1.000 0.000 -0.000
vn 1.000 -0.000 0.000
vn 1.000 0.000 0.000
vn 1.000 -0.000 0.000
vn 1.000 0.000 -0.000
vn 1.000 0.000 0.000
vn 1.000 0.000 0.000
vn 1.000 -0.000 0.000
vn 1.000 0.000 0.000
vn -0.175 0.000 0.985
vn -0.175 0.000 0.985
vn -0.175 0.000 0.985
vn -0.175 0.000 0.985
vn -0.259 0.000 -0.966
vn -0.259 0.000 -0.966
vn -0.259 0.000 -0.966
vn -0.259 0.000 -0.966
vn -0.259 0.000 -0.966
vn -0.259 0.000 -0.966
vn 0.000 -0.001 1.000
vn 0.000 -0.001 1.000
vn -0.000 -0.000 1.000
vn -0.000 -0.002 1.000
vn -0.000 -0.002 1.000

# Facets
f 1//1 3//1 2//1
f 2//2 4//2 1//2
f 5//3 7//3 6//3
f 8//4 10//4 9//4
f 11//5 2//5 12//5
f 4//6 13//6 10//6
f 14//7 16//7 15//7
f 17//8 19//8 18//8
f 20//9 3//9 1//9
f 21//10 23//10 22//10
f 10//11 13//11 24//11
f 20//12 26//12 25//12
f 20//13 27//13 26//13
f 12//14 2//14 6//14
f 12//15 14//15 11//15
f 6//16 14//16 12//16
f 28//17 2//17 29//17
f 30//18 2//18 28//18
f 31//19 11//19 14//19
f 4//20 10//20 8//20
f 13//21 33//21 32//21
f 9//22 26//22 27//22
f 32//23 34//23 13//23
f 9//24 27//24 8//24
f 23//25 4//25 35//25
f 36//26 23//26 19//26
f 37//27 36//27 13//27
f 23//28 15//28 16//28
f 38//29 13//29 36//29
f 20//30 25//30 39//30
f 20//31 4//31 27//31
f 13//32 4//32 37//32
f 1//33 4//33 20//33
f 23//34 36//34 37//34
f 24//35 13//35 34//35
f 34//36 9//36 24//36
f 24//37 9//37 10//37
f 40//38 13//38 38//38
f 31//39 35//39 4//39
f 19//40 17//40 36//40
f 4//41 2//41 11//41
f 36//42 17//42 38//42
f 3//43 20//43 41//43
f 29//44 2//44 3//44
f 23//45 35//45 15//45
f 8//46 27//46 4//46
f 14//47 35//47 31//47
f 33//48 13//48 40//48
f 23//49 16//49 42//49
f 43//50 6//50 2//50
f 14//51 7//51 16//51
f 19//52 23//52 21//52
f 6//53 7//53 14//53
f 37//54 4//54 23//54
f 4//55 11//55 31//55
f 2//56 30//56 43//56
f 14//57 15//57 35//57
f 41//58 20//58 44//58
f 44//59 20//59 45//59
f 39//60 45//60 20//60
f 42//61 22//61 23//61
f 9//62 25//62 26//62
f 46//63 48//63 47//63
f 49//64 51//64 50//64
f 48//65 52//65 47//65
f 53//66 47//66 52//66
f 54//67 56//67 55//67
f 57//68 58//68 50//68
f 49//69 60//69 59//69
f 56//70 61//70 55//70
f 61//71 62//71 55//71
f 63//72 65//72 64//72
f 50//73 62//73 66//73
f 56//74 54//74 67//74
f 68//75 58//75 69//75
f 70//76 71//76 58//76
f 72//77 50//77 58//77
f 71//78 73//78 58//78
f 74//79 75//79 49//79
f 54//80 55//80 59//80
f 65//81 72//81 58//81
f 76//82 63//82 64//82
f 77//83 55//83 62//83
f 77//84 50//84 51//84
f 71//85 70//85 78//85
f 72//86 65//86 47//86
f 49//87 59//87 79//87
f 80//88 46//88 47//88
f 67//89 66//89 56//89
f 55//90 79//90 59//90
f 66//91 67//91 81//91
f 66//92 57//92 50//92
f 53//93 49//93 50//93
f 82//94 70//94 66//94
f 50//95 77//95 62//95
f 60//96 49//96 75//96
f 70//97 82//97 78//97
f 83//98 47//98 63//98
f 55//99 77//99 51//99
f 55//100 51//100 79//100
f 58//101 84//101 65//101
f 58//102 68//102 84//102
f 58//103 57//103 70//103
f 49//104 79//104 51//104
f 65//105 63//105 47//105
f 65//106 84//106 64//106
f 57//107 66//107 70//107
f 85//108 82//108 66//108
f 49//109 53//109 52//109
f 86//110 74//110 49//110
f 81//111 85//111 66//111
f 52//112 86//112 49//112
f 50//113 72//113 47//113
f 47//114 53//114 50//114
f 73//115 69//115 58//115
f 62//116 61//116 66//116
f 47//117 83//117 80//117
f 61//118 56//118 66//118
f 78//119 87//119 71//119
f 34//120 88//120 9//120
f 32//121 88//121 34//121
f 75//122 45//122 89//122
f 33//123 90//123 32//123
f 91//124 93//124 92//124
f 75//125 92//125 60//125
f 94//126 92//126 89//126
f 32//127 90//127 88//127
f 95//128 88//128 90//128
f 75//129 89//129 92//129
f 60//130 92//130 59//130
f 91//131 95//131 93//131
f 25//132 94//132 39//132
f 91//133 92//133 94//133
f 94//134 25//134 91//134
f 95//135 25//135 88//135
f 39//136 94//136 45//136
f 89//137 45//137 94//137
f 59//138 92//138 93//138
f 25//139 95//139 91//139
f 59//140 93//140 95//140
f 9//141 88//141 25//141
f 76//142 64//142 7//142
f 7//143 5//143 76//143
f 96//144 64//144 84//144
f 64//145 16//145 7//145
f 16//146 64//146 97//146
f 97//147 64//147 96//147
f 98//148 100//148 99//148
f 98//149 96//149 68//149
f 96//150 98//150 97//150
f 42//151 16//151 99//151
f 16//152 97//152 99//152
f 101//153 102//153 43//153
f 103//154 101//154 30//154
f 100//155 98//155 69//155
f 6//156 43//156 102//156
f 98//157 99//157 97//157
f 80//158 83//158 103//158
f 22//159 99//159 100//159
f 68//160 69//160 98//160
f 63//161 105//161 104//161
f 101//162 103//162 104//162
f 43//163 30//163 101//163
f 101//164 104//164 105//164
f 83//165 104//165 103//165
f 22//166 42//166 99//166
f 80//167 103//167 30//167
f 102//168 101//168 105//168
f 84//169 68//169 96//169
f 83//170 63//170 104//170
f 22//171 100//171 69//171
f 6//172 102//172 5//172
f 102//173 105//173 5//173
f 105//174 63//174 5//174
f 76//175 5//175 63//175
f 106//176 108//176 107//176
f 109//177 111//177 110//177
f 112//178 113//178 30//178
f 114//179 116//179 115//179
f 112//180 118//180 117//180
f 119//181 121//181 120//181
f 44//182 122//182 41//182
f 119//183 123//183 41//183
f 121//184 119//184 41//184
f 107//185 121//185 41//185
f 124//186 74//186 86//186
f 123//187 3//187 41//187
f 117//188 126//188 125//188
f 123//189 29//189 3//189
f 112//190 127//190 113//190
f 128//191 107//191 86//191
f 125//192 128//192 86//192
f 128//193 125//193 126//193
f 48//194 125//194 52//194
f 86//195 52//195 125//195
f 29//196 123//196 120//196
f 129//197 130//197 126//197
f 120//198 126//198 130//198
f 131//199 132//199 109//199
f 124//200 133//200 75//200
f 134//201 136//201 135//201
f 29//202 120//202 134//202
f 45//203 137//203 44//203
f 135//204 28//204 29//204
f 130//205 129//205 136//205
f 28//206 135//206 30//206
f 45//207 138//207 137//207
f 74//208 124//208 75//208
f 139//209 117//209 118//209
f 140//210 114//210 141//210
f 108//211 106//211 114//211
f 122//212 109//212 41//212
f 29//213 134//213 135//213
f 111//214 133//214 142//214
f 123//215 119//215 120//215
f 133//216 124//216 142//216
f 86//217 141//217 124//217
f 142//218 141//218 115//218
f 141//219 142//219 124//219
f 126//220 120//220 121//220
f 135//221 143//221 118//221
f 114//222 115//222 141//222
f 132//223 131//223 75//223
f 140//224 108//224 114//224
f 117//225 129//225 126//225
f 140//226 86//226 107//226
f 108//227 140//227 107//227
f 136//228 134//228 130//228
f 106//229 144//229 116//229
f 80//230 113//230 127//230
f 145//231 46//231 127//231
f 133//232 132//232 75//232
f 133//233 111//233 132//233
f 131//234 137//234 138//234
f 109//235 122//235 137//235
f 122//236 44//236 137//236
f 80//237 30//237 113//237
f 115//238 110//238 142//238
f 125//239 48//239 117//239
f 144//240 106//240 107//240
f 146//241 144//241 107//241
f 147//242 146//242 107//242
f 41//243 147//243 107//243
f 111//244 109//244 132//244
f 117//245 139//245 129//245
f 137//246 131//246 109//246
f 145//247 117//247 48//247
f 110//248 115//248 116//248
f 139//249 143//249 129//249
f 143//250 136//250 129//250
f 118//251 112//251 30//251
f 147//252 41//252 109//252
f 109//253 110//253 116//253
f 109//254 116//254 147//254
f 121//255 107//255 126//255
f 86//256 140//256 141//256
f 144//257 146//257 116//257
f 127//258 112//258 117//258
f 117//259 145//259 127//259
f 146//260 147//260 116//260
f 131//261 138//261 75//261
f 45//262 75//262 138//262
f 80//263 127//263 46//263
f 116//264 114//264 106//264
f 120//265 130//265 134//265
f 143//266 139//266 118//266
f 143//267 135//267 136//267
f 46//268 145//268 48//268
f 135//269 118//269 30//269
f 107//270 128//270 126//270
f 111//271 142//271 110//271
f 69//272 149//272 148//272
f 85//273 81//273 150//273
f 151//274 153//274 152//274
f 40//275 38//275 154//275
f 150//276 155//276 154//276
f 156//277 158//277 157//277
f 150//278 159//278 85//278
f 154//279 38//279 150//279
f 154//280 155//280 40//280
f 159//281 150//281 160//281
f 33//282 40//282 155//282
f 150//283 81//283 155//283
f 155//284 81//284 33//284
f 161//285 162//285 71//285
f 160//286 150//286 38//286
f 163//287 71//287 164//287
f 165//288 151//288 166//288
f 82//289 85//289 159//289
f 153//290 157//290 158//290
f 163//291 164//291 167//291
f 168//292 167//292 169//292
f 168//293 170//293 167//293
f 151//294 172//294 171//294
f 173//295 158//295 174//295
f 175//296 177//296 176//296
f 175//297 22//297 177//297
f 69//298 177//298 22//298
f 178//299 166//299 179//299
f 176//300 181//300 180//300
f 182//301 69//301 73//301
f 178//302 163//302 166//302
f 183//303 163//303 178//303
f 182//304 163//304 183//304
f 184//305 185//305 176//305
f 166//306 167//306 165//306
f 178//307 149//307 183//307
f 176//308 186//308 175//308
f 148//309 171//309 172//309
f 187//310 188//310 156//310
f 152//311 181//311 151//311
f 69//312 184//312 177//312
f 173//313 181//313 152//313
f 173//314 180//314 181//314
f 189//315 19//315 21//315
f 182//316 71//316 163//316
f 73//317 71//317 182//317
f 179//318 166//318 151//318
f 157//319 162//319 161//319
f 157//320 168//320 162//320
f 157//321 190//321 168//321
f 157//322 153//322 190//322
f 174//323 188//323 189//323
f 170//324 151//324 165//324
f 190//325 151//325 170//325
f 184//326 148//326 185//326
f 69//327 148//327 184//327
f 151//328 190//328 153//328
f 151//329 176//329 172//329
f 176//330 151//330 181//330
f 158//331 173//331 153//331
f 169//332 162//332 168//332
f 19//333 188//333 187//333
f 148//334 149//334 171//334
f 158//335 156//335 188//335
f 176//336 180//336 186//336
f 176//337 177//337 184//337
f 69//338 182//338 149//338
f 183//339 149//339 182//339
f 169//340 167//340 164//340
f 165//341 167//341 170//341
f 152//342 153//342 173//342
f 172//343 176//343 185//343
f 188//344 174//344 158//344
f 19//345 189//345 188//345
f 174//346 180//346 173//346
f 174//347 186//347 180//347
f 189//348 186//348 174//348
f 189//349 175//349 186//349
f 21//350 175//350 189//350
f 21//351 22//351 175//351
f 169//352 71//352 162//352
f 164//353 71//353 169//353
f 179//354 149//354 178//354
f 179//355 171//355 149//355
f 151//356 171//356 179//356
f 170//357 168//357 190//357
f 172//358 185//358 148//358
f 167//359 166//359 163//359
f 17//360 87//360 78//360
f 87//361 17//361 18//361
f 17//362 78//362 38//362
f 38//363 78//363 160//363
f 160//364 78//364 159//364
f 82//365 159//365 78//365
f 71//366 87//366 18//366
f 18//367 19//367 187//367
f 18//368 187//368 156//368
f 18//369 157//369 161//369
f 18//370 156//370 157//370
f 18//371 161//371 71//371
f 54//372 90//372 67//372
f 67//373 90//373 81//373
f 33//374 81//374 90//374
f 90//375 54//375 95//375
f 59//376 95//376 54//376

# Thank you for using Spin 3D

