# Created using Spin 3D

# Vertex Array
v 78.842 4.004 43.536
v 58.546 4.004 43.536
v 63.762 4.004 28.718
v 83.800 4.004 19.122
v 98.618 4.004 24.342
v 86.358 4.004 31.278
v 34.234 4.004 -20.848
v 51.608 4.004 -3.474
v 39.352 4.004 3.462
v 73.912 4.004 28.718
v 68.984 4.004 13.904
v 60.024 4.004 -20.848
v 59.128 4.004 -15.732
v 51.608 4.004 31.278
v 54.170 4.004 18.830
v 64.058 4.004 -0.914
v 86.358 4.004 -3.474
v 83.800 4.004 8.974
v 77.920 4.004 -20.848
v 103.734 4.004 -20.848
v 79.426 4.004 -15.732
v 98.618 4.004 4.046
v 103.734 4.004 48.654
v 74.204 4.004 -0.914
v 54.170 4.004 8.682
v 39.352 4.004 23.758
v 34.234 4.004 22.864
v 34.234 4.004 48.654
v 34.234 4.004 4.970
v 77.946 4.004 48.654
v 103.734 4.004 22.836
v 60.050 4.004 48.654
v 103.734 4.004 4.942
v 79.426 0.000 -15.732
v 77.920 0.000 -20.848
v 58.546 0.000 -15.732
v 59.494 0.000 -20.848
v 103.734 0.000 -20.848
v 103.734 -0.000 48.654
v 98.618 -0.000 24.342
v 86.358 -0.000 31.278
v 74.204 0.000 -0.914
v 34.234 0.000 -20.848
v 103.734 -0.000 4.414
v 98.618 -0.000 3.462
v 86.358 0.000 -3.474
v 51.608 0.000 -3.474
v 60.050 -0.000 48.654
v 58.546 -0.000 43.536
v 34.234 -0.000 48.654
v 51.608 -0.000 31.278
v 39.352 -0.000 24.342
v 39.352 -0.000 3.462
v 54.170 -0.000 8.682
v 83.800 -0.000 19.122
v 68.984 -0.000 13.904
v 103.734 -0.000 22.836
v 79.426 -0.000 43.536
v 54.170 -0.000 19.122
v 78.476 -0.000 48.654
v 63.762 -0.000 28.718
v 34.234 -0.000 23.392
v 74.204 -0.000 28.718
v 83.800 -0.000 8.682
v 63.762 0.000 -0.914
v 34.234 -0.000 4.970

# Normal Array
vn 0.000 1.000 0.000
vn 0.000 1.000 0.000
vn 0.000 1.000 0.000
vn 0.000 1.000 0.000
vn -0.000 1.000 0.000
vn 0.000 1.000 0.000
vn -0.000 1.000 0.000
vn 0.000 1.000 0.000
vn 0.000 1.000 0.000
vn 0.000 1.000 0.000
vn -0.000 1.000 0.000
vn -0.000 1.000 0.000
vn 0.000 1.000 0.000
vn 0.000 1.000 0.000
vn 0.000 1.000 0.000
vn 0.000 1.000 0.000
vn 0.000 1.000 0.000
vn 0.000 1.000 0.000
vn -0.000 1.000 0.000
vn 0.000 1.000 0.000
vn 0.000 1.000 0.000
vn 0.000 1.000 0.000
vn -0.000 1.000 0.000
vn -0.000 1.000 0.000
vn 0.000 1.000 0.000
vn -0.000 1.000 0.000
vn 0.000 1.000 0.000
vn 0.000 1.000 0.000
vn 0.000 1.000 0.000
vn 0.000 1.000 0.000
vn 0.000 1.000 0.000
vn 0.000 1.000 0.000
vn 0.000 1.000 0.000
vn -0.000 1.000 0.000
vn 0.000 1.000 0.000
vn -0.000 1.000 0.000
vn 0.000 1.000 0.000
vn 0.000 1.000 0.000
vn 0.000 1.000 0.000
vn 0.000 1.000 0.000
vn -0.000 1.000 0.000
vn 0.000 1.000 0.000
vn -0.000 1.000 0.000
vn 0.000 1.000 0.000
vn -0.959 0.000 0.282
vn -0.959 0.000 0.282
vn 0.000 0.000 -1.000
vn 0.000 0.000 -1.000
vn 0.975 -0.129 0.181
vn 0.975 -0.142 0.171
vn 0.000 -1.000 -0.000
vn 0.000 -1.000 -0.000
vn 0.000 -1.000 -0.000
vn 0.000 -1.000 -0.000
vn 0.000 -1.000 -0.000
vn 0.000 -1.000 -0.000
vn 0.000 -1.000 -0.000
vn -0.000 -1.000 -0.000
vn -0.000 -1.000 -0.000
vn 0.000 -1.000 -0.000
vn 0.000 -1.000 -0.000
vn -0.000 -1.000 -0.000
vn 0.000 -1.000 -0.000
vn 0.000 -1.000 -0.000
vn 0.000 -1.000 -0.000
vn -0.000 -1.000 -0.000
vn -0.000 -1.000 -0.000
vn 0.000 -1.000 -0.000
vn -0.000 -1.000 -0.000
vn -0.000 -1.000 -0.000
vn 0.000 -1.000 -0.000
vn -0.000 -1.000 -0.000
vn -0.000 -1.000 -0.000
vn 0.000 -1.000 -0.000
vn 0.000 -1.000 -0.000
vn -0.000 -1.000 -0.000
vn -0.000 -1.000 -0.000
vn -0.000 -1.000 -0.000
vn -0.000 -1.000 -0.000
vn -0.000 -1.000 -0.000
vn 0.000 -1.000 -0.000
vn -0.000 -1.000 -0.000
vn -0.000 -1.000 -0.000
vn -0.000 -1.000 -0.000
vn -0.000 -1.000 -0.000
vn -0.000 -1.000 -0.000
vn 0.000 -1.000 -0.000
vn 0.000 -1.000 -0.000
vn 0.000 -1.000 -0.000
vn -0.000 -1.000 -0.000
vn 0.000 -1.000 -0.000
vn -0.000 -1.000 -0.000
vn -0.000 -1.000 -0.000
vn 0.000 -1.000 -0.000
vn 1.000 0.000 0.000
vn 1.000 0.000 0.000
vn 1.000 -0.000 0.000
vn 1.000 0.000 0.000
vn -0.282 0.000 -0.959
vn -0.282 0.000 -0.959
vn 1.000 0.000 0.000
vn 1.000 -0.000 0.000
vn -0.171 -0.142 0.975
vn -0.181 -0.129 0.975
vn 0.000 -0.000 1.000
vn -0.000 0.000 1.000
vn -0.000 0.000 1.000
vn 0.000 -0.000 1.000
vn 0.959 0.000 -0.282
vn 0.959 0.000 -0.282
vn 0.000 0.000 1.000
vn -0.000 0.000 1.000
vn -0.975 -0.142 -0.171
vn -0.975 -0.129 -0.181
vn 0.283 -0.000 0.959
vn 0.283 0.000 0.959
vn -1.000 0.000 0.000
vn -1.000 0.000 0.000
vn 0.170 -0.142 -0.975
vn 0.181 -0.129 -0.975
vn 0.000 0.000 -1.000
vn 0.000 0.000 -1.000
vn 0.000 0.000 -1.000
vn 0.000 0.000 -1.000
vn -1.000 0.000 0.000
vn -1.000 0.000 0.000
vn -1.000 0.000 0.000
vn -1.000 0.000 0.000

# Facets
f 1//1 3//1 2//1
f 4//2 6//2 5//2
f 7//3 9//3 8//3
f 10//4 11//4 3//4
f 7//5 13//5 12//5
f 14//6 3//6 11//6
f 14//7 2//7 3//7
f 11//8 15//8 14//8
f 11//9 16//9 8//9
f 11//10 18//10 17//10
f 19//11 21//11 20//11
f 18//12 4//12 22//12
f 23//13 5//13 6//13
f 23//14 6//14 1//14
f 10//15 1//15 6//15
f 5//16 22//16 4//16
f 16//17 11//17 24//17
f 1//18 10//18 3//18
f 6//19 4//19 11//19
f 4//20 18//20 11//20
f 25//21 15//21 11//21
f 8//22 25//22 11//22
f 17//23 22//23 20//23
f 9//24 26//24 25//24
f 7//25 8//25 13//25
f 15//26 25//26 26//26
f 27//27 28//27 26//27
f 7//28 29//28 9//28
f 14//29 26//29 28//29
f 2//30 14//30 28//30
f 23//31 1//31 30//31
f 17//32 24//32 11//32
f 13//33 16//33 24//33
f 26//34 14//34 15//34
f 17//35 21//35 24//35
f 21//36 17//36 20//36
f 25//37 8//37 9//37
f 16//38 13//38 8//38
f 23//39 31//39 5//39
f 13//40 24//40 21//40
f 11//41 10//41 6//41
f 32//42 2//42 28//42
f 33//43 20//43 22//43
f 22//44 17//44 18//44
f 34//45 21//45 35//45
f 19//46 35//46 21//46
f 13//47 21//47 34//47
f 34//48 36//48 13//48
f 12//49 36//49 37//49
f 36//50 12//50 13//50
f 35//51 38//51 34//51
f 39//52 41//52 40//52
f 36//53 34//53 42//53
f 43//54 37//54 36//54
f 44//55 45//55 38//55
f 46//56 42//56 34//56
f 43//57 36//57 47//57
f 48//58 50//58 49//58
f 51//59 50//59 52//59
f 53//60 54//60 52//60
f 54//61 53//61 47//61
f 41//62 56//62 55//62
f 46//63 56//63 42//63
f 39//64 40//64 57//64
f 39//65 58//65 41//65
f 56//66 51//66 59//66
f 39//67 60//67 58//67
f 51//68 61//68 49//68
f 55//69 40//69 41//69
f 62//70 52//70 50//70
f 58//71 61//71 63//71
f 45//72 64//72 46//72
f 56//73 47//73 65//73
f 47//74 56//74 54//74
f 51//75 56//75 61//75
f 34//76 38//76 46//76
f 64//77 45//77 55//77
f 49//78 50//78 51//78
f 56//79 41//79 63//79
f 63//80 41//80 58//80
f 43//81 47//81 53//81
f 63//82 61//82 56//82
f 58//83 49//83 61//83
f 55//84 56//84 64//84
f 56//85 46//85 64//85
f 40//86 55//86 45//86
f 36//87 42//87 65//87
f 54//88 56//88 59//88
f 59//89 52//89 54//89
f 46//90 38//90 45//90
f 65//91 42//91 56//91
f 43//92 53//92 66//92
f 65//93 47//93 36//93
f 52//94 59//94 51//94
f 20//95 44//95 38//95
f 20//96 33//96 44//96
f 39//97 31//97 23//97
f 31//98 39//98 57//98
f 5//99 31//99 57//99
f 57//100 40//100 5//100
f 40//101 45//101 22//101
f 40//102 22//102 5//102
f 45//103 33//103 22//103
f 33//104 45//104 44//104
f 39//105 23//105 60//105
f 30//106 60//106 23//106
f 28//107 50//107 32//107
f 48//108 32//108 50//108
f 48//109 2//109 32//109
f 2//110 48//110 49//110
f 58//111 1//111 49//111
f 2//112 49//112 1//112
f 58//113 30//113 1//113
f 30//114 58//114 60//114
f 53//115 9//115 66//115
f 29//116 66//116 9//116
f 9//117 53//117 26//117
f 52//118 26//118 53//118
f 52//119 27//119 26//119
f 27//120 52//120 62//120
f 19//121 20//121 38//121
f 38//122 35//122 19//122
f 7//123 12//123 37//123
f 37//124 43//124 7//124
f 50//125 28//125 62//125
f 27//126 62//126 28//126
f 7//127 43//127 29//127
f 66//128 29//128 43//128

# Thank you for using Spin 3D

